<svg width="32" height="32" viewBox="0 0 32 32" fill="none" xmlns="http://www.w3.org/2000/svg">
  <path d="M16 14.667A1.333 1.333 0 0 0 14.667 16v5.333a1.333 1.333 0 0 0 2.666 0V16A1.333 1.333 0 0 0 16 14.667Zm.507-5.227a1.333 1.333 0 0 0-1.014 0 1.334 1.334 0 0 0-.44.28 1.56 1.56 0 0 0-.28.44c-.075.158-.11.332-.106.507a1.332 1.332 0 0 0 .386.946c.13.118.279.213.44.28a1.334 1.334 0 0 0 1.84-1.226 1.4 1.4 0 0 0-.386-.947 1.334 1.334 0 0 0-.44-.28ZM16 2.667a13.333 13.333 0 1 0 0 26.666 13.333 13.333 0 0 0 0-26.666Zm0 24a10.666 10.666 0 1 1 0-21.333 10.666 10.666 0 0 1 0 21.333Z" fill="currentColor"/>
</svg>
