<svg width="32" height="32" viewBox="0 0 32 32" fill="none" xmlns="http://www.w3.org/2000/svg">
  <path d="M16.334 17.667a1.334 1.334 0 0 0 1.334-1.333v-5.333a1.333 1.333 0 0 0-2.665 0v5.333a1.333 1.333 0 0 0 1.33 1.333Zm-.508 5.227c.325.134.69.134 1.014 0 .165-.064.314-.159.44-.28a1.56 1.56 0 0 0 .28-.44c.076-.158.112-.332.107-.507a1.332 1.332 0 0 0-.387-.946 1.532 1.532 0 0 0-.44-.28 1.334 1.334 0 0 0-1.838 1.226 1.4 1.4 0 0 0 .385.947c.127.121.277.216.44.28Zm.508 6.773a13.333 13.333 0 1 0 0-26.667 13.333 13.333 0 0 0 0 26.667Zm0-24A10.667 10.667 0 1 1 16.54 27a10.667 10.667 0 0 1-.206-21.333Z" fill="currentColor"/>
</svg>
