<svg width="292" height="44" viewBox="0 0 292 44" fill="none" xmlns="http://www.w3.org/2000/svg">
<path d="M9.108 35.288C7.5 35.288 5.928 35.096 4.392 34.712C2.856 34.304 1.632 33.8 0.72 33.2L2.592 29.168C3.456 29.72 4.5 30.176 5.724 30.536C6.948 30.872 8.148 31.04 9.324 31.04C11.7 31.04 12.888 30.452 12.888 29.276C12.888 28.724 12.564 28.328 11.916 28.088C11.268 27.848 10.272 27.644 8.928 27.476C7.344 27.236 6.036 26.96 5.004 26.648C3.972 26.336 3.072 25.784 2.304 24.992C1.56 24.2 1.188 23.072 1.188 21.608C1.188 20.384 1.536 19.304 2.232 18.368C2.952 17.408 3.984 16.664 5.328 16.136C6.696 15.608 8.304 15.344 10.152 15.344C11.52 15.344 12.876 15.5 14.22 15.812C15.588 16.1 16.716 16.508 17.604 17.036L15.732 21.032C14.028 20.072 12.168 19.592 10.152 19.592C8.952 19.592 8.052 19.76 7.452 20.096C6.852 20.432 6.552 20.864 6.552 21.392C6.552 21.992 6.876 22.412 7.524 22.652C8.172 22.892 9.204 23.12 10.62 23.336C12.204 23.6 13.5 23.888 14.508 24.2C15.516 24.488 16.392 25.028 17.136 25.82C17.88 26.612 18.252 27.716 18.252 29.132C18.252 30.332 17.892 31.4 17.172 32.336C16.452 33.272 15.396 34.004 14.004 34.532C12.636 35.036 11.004 35.288 9.108 35.288ZM21.717 15.632H27.333V35H21.717V15.632ZM24.525 12.932C23.493 12.932 22.653 12.632 22.005 12.032C21.357 11.432 21.033 10.688 21.033 9.8C21.033 8.912 21.357 8.168 22.005 7.568C22.653 6.968 23.493 6.668 24.525 6.668C25.557 6.668 26.397 6.956 27.045 7.532C27.693 8.108 28.017 8.828 28.017 9.692C28.017 10.628 27.693 11.408 27.045 12.032C26.397 12.632 25.557 12.932 24.525 12.932ZM57.3491 15.344C59.7731 15.344 61.6931 16.064 63.1091 17.504C64.5491 18.92 65.2691 21.056 65.2691 23.912V35H59.6531V24.776C59.6531 23.24 59.3291 22.1 58.6811 21.356C58.0571 20.588 57.1571 20.204 55.9811 20.204C54.6611 20.204 53.6171 20.636 52.8491 21.5C52.0811 22.34 51.6971 23.6 51.6971 25.28V35H46.0811V24.776C46.0811 21.728 44.8571 20.204 42.4091 20.204C41.1131 20.204 40.0811 20.636 39.3131 21.5C38.5451 22.34 38.1611 23.6 38.1611 25.28V35H32.5451V15.632H37.9091V17.864C38.6291 17.048 39.5051 16.424 40.5371 15.992C41.5931 15.56 42.7451 15.344 43.9931 15.344C45.3611 15.344 46.5971 15.62 47.7011 16.172C48.8051 16.7 49.6931 17.48 50.3651 18.512C51.1571 17.504 52.1531 16.724 53.3531 16.172C54.5771 15.62 55.9091 15.344 57.3491 15.344ZM81.7509 15.344C83.5509 15.344 85.1829 15.764 86.6469 16.604C88.1349 17.42 89.2989 18.584 90.1389 20.096C90.9789 21.584 91.3989 23.324 91.3989 25.316C91.3989 27.308 90.9789 29.06 90.1389 30.572C89.2989 32.06 88.1349 33.224 86.6469 34.064C85.1829 34.88 83.5509 35.288 81.7509 35.288C79.2789 35.288 77.3349 34.508 75.9189 32.948V41.984H70.3029V15.632H75.6669V17.864C77.0589 16.184 79.0869 15.344 81.7509 15.344ZM80.7789 30.68C82.2189 30.68 83.3949 30.2 84.3069 29.24C85.2429 28.256 85.7109 26.948 85.7109 25.316C85.7109 23.684 85.2429 22.388 84.3069 21.428C83.3949 20.444 82.2189 19.952 80.7789 19.952C79.3389 19.952 78.1509 20.444 77.2149 21.428C76.3029 22.388 75.8469 23.684 75.8469 25.316C75.8469 26.948 76.3029 28.256 77.2149 29.24C78.1509 30.2 79.3389 30.68 80.7789 30.68ZM95.1584 8.288H100.774V35H95.1584V8.288ZM124.959 25.388C124.959 25.46 124.923 25.964 124.851 26.9H110.199C110.463 28.1 111.087 29.048 112.071 29.744C113.055 30.44 114.279 30.788 115.743 30.788C116.751 30.788 117.639 30.644 118.407 30.356C119.199 30.044 119.931 29.564 120.603 28.916L123.591 32.156C121.767 34.244 119.103 35.288 115.599 35.288C113.415 35.288 111.483 34.868 109.803 34.028C108.123 33.164 106.827 31.976 105.915 30.464C105.003 28.952 104.547 27.236 104.547 25.316C104.547 23.42 104.991 21.716 105.879 20.204C106.791 18.668 108.027 17.48 109.587 16.64C111.171 15.776 112.935 15.344 114.879 15.344C116.775 15.344 118.491 15.752 120.027 16.568C121.563 17.384 122.763 18.56 123.627 20.096C124.515 21.608 124.959 23.372 124.959 25.388ZM114.915 19.592C113.643 19.592 112.575 19.952 111.711 20.672C110.847 21.392 110.319 22.376 110.127 23.624H119.667C119.475 22.4 118.947 21.428 118.083 20.708C117.219 19.964 116.163 19.592 114.915 19.592ZM128.329 22.616H138.517V27.116H128.329V22.616ZM154.708 15.344C157.108 15.344 159.04 16.064 160.504 17.504C161.992 18.944 162.736 21.08 162.736 23.912V35H157.12V24.776C157.12 23.24 156.784 22.1 156.112 21.356C155.44 20.588 154.468 20.204 153.196 20.204C151.78 20.204 150.652 20.648 149.812 21.536C148.972 22.4 148.552 23.696 148.552 25.424V35H142.936V15.632H148.3V17.9C149.044 17.084 149.968 16.46 151.072 16.028C152.176 15.572 153.388 15.344 154.708 15.344ZM177.253 35.288C175.213 35.288 173.377 34.868 171.745 34.028C170.137 33.164 168.877 31.976 167.965 30.464C167.053 28.952 166.597 27.236 166.597 25.316C166.597 23.396 167.053 21.68 167.965 20.168C168.877 18.656 170.137 17.48 171.745 16.64C173.377 15.776 175.213 15.344 177.253 15.344C179.293 15.344 181.117 15.776 182.725 16.64C184.333 17.48 185.593 18.656 186.505 20.168C187.417 21.68 187.873 23.396 187.873 25.316C187.873 27.236 187.417 28.952 186.505 30.464C185.593 31.976 184.333 33.164 182.725 34.028C181.117 34.868 179.293 35.288 177.253 35.288ZM177.253 30.68C178.693 30.68 179.869 30.2 180.781 29.24C181.717 28.256 182.185 26.948 182.185 25.316C182.185 23.684 181.717 22.388 180.781 21.428C179.869 20.444 178.693 19.952 177.253 19.952C175.813 19.952 174.625 20.444 173.689 21.428C172.753 22.388 172.285 23.684 172.285 25.316C172.285 26.948 172.753 28.256 173.689 29.24C174.625 30.2 175.813 30.68 177.253 30.68ZM204.119 34.064C203.567 34.472 202.883 34.784 202.067 35C201.275 35.192 200.435 35.288 199.547 35.288C197.243 35.288 195.455 34.7 194.183 33.524C192.935 32.348 192.311 30.62 192.311 28.34V20.384H189.323V16.064H192.311V11.348H197.927V16.064H202.751V20.384H197.927V28.268C197.927 29.084 198.131 29.72 198.539 30.176C198.971 30.608 199.571 30.824 200.339 30.824C201.227 30.824 201.983 30.584 202.607 30.104L204.119 34.064ZM207.272 15.632H212.888V35H207.272V15.632ZM210.08 12.932C209.048 12.932 208.208 12.632 207.56 12.032C206.912 11.432 206.588 10.688 206.588 9.8C206.588 8.912 206.912 8.168 207.56 7.568C208.208 6.968 209.048 6.668 210.08 6.668C211.112 6.668 211.952 6.956 212.6 7.532C213.248 8.108 213.572 8.828 213.572 9.692C213.572 10.628 213.248 11.408 212.6 12.032C211.952 12.632 211.112 12.932 210.08 12.932ZM224.256 16.064H229.224V20.384H224.4V35H218.784V20.384H215.796V16.064H218.784V15.2C218.784 12.992 219.432 11.24 220.728 9.944C222.048 8.648 223.896 8 226.272 8C227.112 8 227.904 8.096 228.648 8.288C229.416 8.456 230.052 8.708 230.556 9.044L229.08 13.112C228.432 12.656 227.676 12.428 226.812 12.428C225.108 12.428 224.256 13.364 224.256 15.236V16.064ZM251.597 15.632L242.849 36.188C241.961 38.42 240.857 39.992 239.537 40.904C238.241 41.816 236.669 42.272 234.821 42.272C233.813 42.272 232.817 42.116 231.833 41.804C230.849 41.492 230.045 41.06 229.421 40.508L231.473 36.512C231.905 36.896 232.397 37.196 232.949 37.412C233.525 37.628 234.089 37.736 234.641 37.736C235.409 37.736 236.033 37.544 236.513 37.16C236.993 36.8 237.425 36.188 237.809 35.324L237.881 35.144L229.493 15.632H235.289L240.725 28.772L246.197 15.632H251.597Z" fill="black"/>
<path d="M256.716 35.288C255.732 35.288 254.904 34.952 254.232 34.28C253.56 33.608 253.224 32.768 253.224 31.76C253.224 30.728 253.56 29.9 254.232 29.276C254.904 28.628 255.732 28.304 256.716 28.304C257.7 28.304 258.528 28.628 259.2 29.276C259.872 29.9 260.208 30.728 260.208 31.76C260.208 32.768 259.872 33.608 259.2 34.28C258.528 34.952 257.7 35.288 256.716 35.288ZM262.925 42.272C260.957 42.272 259.457 41.912 258.425 41.192L259.937 37.124C260.585 37.58 261.377 37.808 262.313 37.808C263.033 37.808 263.597 37.568 264.005 37.088C264.413 36.632 264.617 35.936 264.617 35V15.632H270.233V34.964C270.233 37.22 269.585 38.996 268.289 40.292C267.017 41.612 265.229 42.272 262.925 42.272ZM267.425 12.932C266.393 12.932 265.553 12.632 264.905 12.032C264.257 11.432 263.933 10.688 263.933 9.8C263.933 8.912 264.257 8.168 264.905 7.568C265.553 6.968 266.393 6.668 267.425 6.668C268.457 6.668 269.297 6.956 269.945 7.532C270.593 8.108 270.917 8.828 270.917 9.692C270.917 10.628 270.593 11.408 269.945 12.032C269.297 12.632 268.457 12.932 267.425 12.932ZM281.921 35.288C280.313 35.288 278.741 35.096 277.205 34.712C275.669 34.304 274.445 33.8 273.533 33.2L275.405 29.168C276.269 29.72 277.313 30.176 278.537 30.536C279.761 30.872 280.961 31.04 282.137 31.04C284.513 31.04 285.701 30.452 285.701 29.276C285.701 28.724 285.377 28.328 284.729 28.088C284.081 27.848 283.085 27.644 281.741 27.476C280.157 27.236 278.849 26.96 277.817 26.648C276.785 26.336 275.885 25.784 275.117 24.992C274.373 24.2 274 23.072 274 21.608C274 20.384 274.349 19.304 275.045 18.368C275.765 17.408 276.797 16.664 278.141 16.136C279.509 15.608 281.117 15.344 282.965 15.344C284.333 15.344 285.689 15.5 287.033 15.812C288.401 16.1 289.529 16.508 290.417 17.036L288.545 21.032C286.841 20.072 284.981 19.592 282.965 19.592C281.765 19.592 280.865 19.76 280.265 20.096C279.665 20.432 279.365 20.864 279.365 21.392C279.365 21.992 279.689 22.412 280.337 22.652C280.985 22.892 282.017 23.12 283.433 23.336C285.017 23.6 286.313 23.888 287.321 24.2C288.329 24.488 289.205 25.028 289.949 25.82C290.693 26.612 291.065 27.716 291.065 29.132C291.065 30.332 290.705 31.4 289.985 32.336C289.265 33.272 288.209 34.004 286.817 34.532C285.449 35.036 283.817 35.288 281.921 35.288Z" fill="#F2C94C"/>
</svg>
